<?xml version="1.0" encoding="UTF-8" standalone="no"?>
<svg
   width="288"
   height="500"
   viewBox="0 0 288 500"
   fill="none"
   version="1.1"
   id="svg79"
   sodipodi:docname="wangui.svg"
   inkscape:version="1.1.1 (eb90963e84, 2021-10-02)"
   xmlns:inkscape="http://www.inkscape.org/namespaces/inkscape"
   xmlns:sodipodi="http://sodipodi.sourceforge.net/DTD/sodipodi-0.dtd"
   xmlns="http://www.w3.org/2000/svg"
   xmlns:svg="http://www.w3.org/2000/svg">
  <sodipodi:namedview
     id="namedview81"
     pagecolor="#ffffff"
     bordercolor="#666666"
     borderopacity="1.0"
     inkscape:pageshadow="2"
     inkscape:pageopacity="0.0"
     inkscape:pagecheckerboard="0"
     showgrid="false"
     inkscape:zoom="1.638"
     inkscape:cx="144.07814"
     inkscape:cy="250.30525"
     inkscape:window-width="1856"
     inkscape:window-height="1020"
     inkscape:window-x="64"
     inkscape:window-y="27"
     inkscape:window-maximized="1"
     inkscape:current-layer="g72" />
  <g
     clip-path="url(#clip0_33_58)"
     id="g72">
    <path
       d="M210.399 344.637V412.992C210.399 423.342 213.047 433.52 218.091 442.557C223.135 451.594 230.407 459.191 239.216 464.624L264.43 480.177"
       stroke="#6562CF"
       stroke-width="2.5"
       stroke-miterlimit="10"
       stroke-linecap="round"
       id="path2" />
    <path
       d="M196.727 344.637V412.992C196.727 423.342 194.08 433.519 189.037 442.556C183.994 451.593 176.722 459.19 167.915 464.624L142.697 480.177"
       stroke="#6562CF"
       stroke-width="2.5"
       stroke-miterlimit="10"
       stroke-linecap="round"
       id="path4" />
    <path
       d="M210.542 344.633H195.322C191.963 344.633 188.741 343.298 186.365 340.923C183.99 338.547 182.655 335.326 182.655 331.966H223.22C223.22 333.631 222.892 335.279 222.255 336.816C221.617 338.354 220.683 339.751 219.506 340.927C218.328 342.103 216.931 343.036 215.392 343.672C213.854 344.308 212.206 344.634 210.542 344.633Z"
       fill="white"
       stroke="#6562CF"
       stroke-width="2.5"
       stroke-miterlimit="10"
       id="path6" />
    <path
       d="M227.08 310.077H239.35L244.132 283.426H231.861L227.08 310.077Z"
       fill="white"
       stroke="#6562CF"
       stroke-width="2.5"
       stroke-miterlimit="10"
       id="path8" />
    <path
       d="M132.512 314.962V325.289C132.512 326.654 136.252 327.933 142.756 329.021C155.248 331.115 177.929 332.516 203.84 332.516C243.229 332.516 275.165 329.279 275.165 325.289V314.962C275.165 316.98 266.963 318.813 253.746 320.107C240.882 321.414 223.268 322.205 203.852 322.205C184.437 322.205 166.806 321.414 153.942 320.139C149.651 319.712 145.891 319.233 142.768 318.71C136.252 317.606 132.512 316.327 132.512 314.962Z"
       fill="#D1D1FF"
       stroke="#6562CF"
       stroke-width="2.5"
       stroke-miterlimit="10"
       id="path10" />
    <path
       d="M132.512 314.961C132.512 316.327 136.252 317.606 142.756 318.694C145.879 319.217 149.639 319.696 153.93 320.123C166.795 321.413 184.409 322.205 203.852 322.205C223.295 322.205 240.894 321.413 253.758 320.139C266.975 318.829 275.177 316.996 275.177 314.993C275.177 310.999 243.241 307.757 203.852 307.757C172.534 307.757 145.93 309.804 136.339 312.654C133.854 313.354 132.512 314.142 132.512 314.961Z"
       fill="white"
       stroke="#6562CF"
       stroke-width="2.5"
       stroke-miterlimit="10"
       id="path12" />
    <path
       d="M233.187 284.301H247.247C259.68 284.301 272.929 268.376 276.839 248.727L285.761 203.896C289.672 184.247 282.765 168.323 270.324 168.323H256.272C243.843 168.323 230.595 184.247 226.684 203.896L217.758 248.727C213.847 268.372 220.754 284.301 233.187 284.301Z"
       fill="#D1D1FF"
       stroke="#6562CF"
       stroke-width="2.5"
       stroke-miterlimit="10"
       id="path14" />
    <path
       d="M224.875 284.301H238.935C251.368 284.301 264.616 268.376 268.527 248.727L277.449 203.896C281.36 184.247 274.452 168.323 262.011 168.323H247.96C235.531 168.323 222.282 184.247 218.371 203.896L209.445 248.727C205.535 268.372 212.442 284.301 224.875 284.301Z"
       fill="white"
       stroke="#6562CF"
       stroke-width="2.5"
       stroke-miterlimit="10"
       id="path16" />
    <path
       d="M265.558 499.01C271.795 499.01 276.851 493.954 276.851 487.717C276.851 481.48 271.795 476.424 265.558 476.424C259.321 476.424 254.265 481.48 254.265 487.717C254.265 493.954 259.321 499.01 265.558 499.01Z"
       fill="#D1D1FF"
       stroke="#6562CF"
       stroke-width="2.5"
       stroke-miterlimit="10"
       id="path18" />
    <path
       d="M142.455 499.01C148.692 499.01 153.748 493.954 153.748 487.717C153.748 481.48 148.692 476.424 142.455 476.424C136.218 476.424 131.162 481.48 131.162 487.717C131.162 493.954 136.218 499.01 142.455 499.01Z"
       fill="#D1D1FF"
       stroke="#6562CF"
       stroke-width="2.5"
       stroke-miterlimit="10"
       id="path20" />
    <path
       d="M186.962 446.025C186.962 446.025 201.58 435.294 220.184 446.025"
       stroke="#6562CF"
       stroke-width="2.5"
       stroke-miterlimit="10"
       id="path22" />
    <path
       d="M241.06 282.12C220.873 310.726 140.013 293.23 140.013 293.23C139.478 282.116 140.29 252.951 120.565 236.318L166.169 237.506C202.19 240.874 228.869 233.674 237.169 229.961C244.294 240.324 255.31 261.92 241.06 282.12Z"
       fill="#6562CF"
       id="path24" />
    <path
       d="M108.572 238.08C108.572 238.08 52.76 241.48 47.9823 253.394C33.0516 290.539 90.9536 407.558 94.6031 436.323C97.6589 460.524 77.6577 473.467 77.6577 473.467C77.6577 473.467 86.6588 479.654 99.2898 476.238C101.993 475.506 104.499 472.11 109.546 468.013C113.298 464.969 122.541 459.491 122.382 454.867C122.121 447.252 111.022 441.374 111.335 436.62C111.648 431.866 120.878 368.355 117.668 341.047C114.106 310.568 91.1476 293.911 91.1476 293.911L140.191 293.318C140.191 293.318 132.516 253.287 108.572 238.08Z"
       fill="#B65A18"
       id="path26" />
    <path
       d="M140.963 293.258C140.963 293.258 145.167 254.728 119.588 235.55C117.565 234.034 111.921 235.887 108.675 236.528C107.488 236.765 107.175 238.111 107.883 239.113C124.837 263.484 125.181 284.384 124.013 296.734L140.963 293.258Z"
       fill="#8382D8"
       id="path28" />
    <path
       d="M121.718 448.871C123.073 450.627 123.74 452.817 123.594 455.031C123.449 457.244 122.5 459.329 120.926 460.892L103.252 478.344C103.252 478.344 71.6372 478.934 69.7808 478.344C67.9243 477.754 69.5987 472.474 74.7445 470.93C79.8902 469.386 86.9241 460.828 86.9241 460.828C86.9241 460.828 92.541 454.808 101.704 473.451L107.836 468.064C107.836 468.064 106.387 452.176 108.782 443.942H94.6032C94.2786 443.945 93.9566 443.883 93.6559 443.761C93.3551 443.639 93.0816 443.458 92.8509 443.23C92.6202 443.001 92.437 442.729 92.3118 442.43C92.1866 442.13 92.1219 441.809 92.1214 441.484C92.1379 440.865 92.3954 440.278 92.839 439.846C93.2826 439.414 93.8773 439.172 94.4963 439.173H112.079C112.361 439.172 112.639 439.232 112.896 439.346C113.153 439.461 113.383 439.628 113.571 439.838L121.718 448.871Z"
       fill="#333B63"
       id="path30" />
    <path
       d="M252.935 294.39C244.357 319.201 173.812 315.927 161.787 315.053C161.789 315.035 161.789 315.018 161.787 315.001C161.253 303.886 157.999 268.816 138.275 252.183L164.455 245.85L167.392 237.62C202.585 240.696 228.635 233.725 237.015 230.036C242.794 237.723 262.49 266.738 252.935 294.39Z"
       fill="#8382D8"
       id="path32" />
    <path
       d="M120.842 255.892C120.842 255.892 62.9128 267.054 60.4151 283.996C57.9174 300.937 94.6029 432.048 90.6446 456.114C86.6863 480.181 60.6368 496.821 60.6368 496.821C60.6368 496.821 82.1936 500.934 93.7479 496.821C96.3841 495.879 101.17 489.538 105.587 487.013C109.783 484.614 118.582 480.47 118.424 475.846C118.163 468.231 107.064 461.957 107.376 457.203C107.689 452.449 125.232 384.188 122.022 356.88C118.46 326.401 107.376 313.703 107.376 313.703L139.795 313.109C139.795 313.109 145.867 278.715 120.842 255.892Z"
       fill="#C36F0B"
       id="path34" />
    <path
       d="M142.522 316.873L158.494 318.457C158.94 318.457 159.382 318.367 159.792 318.191C160.203 318.016 160.573 317.759 160.881 317.435C161.188 317.112 161.427 316.729 161.582 316.311C161.737 315.893 161.806 315.447 161.783 315.001C161.245 303.811 157.952 268.329 137.859 251.835C137.041 251.167 136.078 250.7 135.047 250.471C134.016 250.243 132.945 250.26 131.922 250.521L118.464 253.984C118.464 253.984 145.665 272.564 139.272 313.046C139.196 313.517 139.223 313.999 139.351 314.459C139.48 314.918 139.706 315.345 140.015 315.709C140.324 316.073 140.708 316.365 141.141 316.566C141.574 316.767 142.045 316.872 142.522 316.873Z"
       fill="#E5E6FF"
       id="path36" />
    <path
       d="M117.324 468.84C118.71 470.632 119.392 472.87 119.242 475.13C119.092 477.391 118.12 479.518 116.508 481.111L98.4782 498.923C98.4782 498.923 62.1886 499.525 60.2925 498.923C58.3965 498.322 60.1065 492.934 65.3592 491.359C70.6118 489.784 77.7842 481.067 77.7842 481.067C77.7842 481.067 87.5533 474.924 96.8989 493.944L103.157 488.446C103.157 488.446 101.677 472.217 104.119 463.837H89.6473C89.316 463.84 88.9875 463.778 88.6805 463.653C88.3736 463.529 88.0943 463.345 87.8588 463.112C87.6233 462.879 87.4362 462.602 87.3084 462.296C87.1805 461.99 87.1145 461.663 87.114 461.331C87.1294 460.697 87.3922 460.093 87.8462 459.65C88.3002 459.206 88.9096 458.957 89.5443 458.956H107.479C107.767 458.956 108.051 459.016 108.313 459.133C108.576 459.249 108.811 459.42 109.003 459.633L117.324 468.84Z"
       fill="#3F4D79"
       id="path38" />
    <path
       d="M205.534 82.1425C211.001 85.0202 223.964 91.5712 232.09 105.536C240.217 119.501 222.404 170.294 222.642 185.446C222.879 200.598 237.244 226.842 239.746 228.029C242.247 229.217 210.375 242.279 163.351 237.24C163.351 237.24 167.071 216.048 164.356 206.837C161.641 197.626 149.061 170.907 149.061 170.907C149.061 170.907 134.768 160.038 137.816 151.417C139.846 145.673 161.261 110.203 161.261 110.203L205.534 82.1425Z"
       fill="#FFB000"
       id="path40" />
    <path
       d="M253.046 157.936C253.046 157.936 238.507 175.06 211.986 175.06C211.986 175.06 190.75 106.684 215.05 98.051C239.35 89.4179 253.046 157.936 253.046 157.936Z"
       fill="#FFC033"
       id="path42" />
    <path
       d="M254.752 202.926C253.513 214.365 160.473 229.803 160.473 229.803L160.445 229.747C158.755 230.614 152.556 233.488 148.38 231.362C143.508 228.873 139.201 227.8 136.221 228.453C132.539 229.245 128.348 232.087 126.25 231.457C123.706 230.718 121.329 229.497 119.247 227.859C121.293 225.497 123.457 223.239 125.731 221.094C123.637 221.752 120.645 223.469 119.097 223.988C116.615 224.843 115.673 222.436 115.673 222.436C115.673 222.436 121.634 218.233 123.257 217.291C126.091 215.683 132.464 214.124 134.214 214.124C137.273 214.203 153.669 216.273 161.783 217.742C175.111 210.779 208.99 193.311 222.139 188.846L217.666 174.422C217.666 174.422 236.54 172.582 249.804 160.568C249.804 160.604 256.03 191.095 254.752 202.926Z"
       fill="#C36F0B"
       id="path44" />
    <path
       d="M121.915 228.639C121.915 228.639 130.869 220.901 132.836 220.722C136.304 220.39 140.832 219.931 140.832 219.931"
       stroke="#A55F2B"
       stroke-width="4"
       stroke-miterlimit="10"
       stroke-linecap="round"
       id="path46" />
    <path
       d="M124.829 230.325C124.829 230.325 132.745 223.992 134.724 223.798C138.192 223.466 142.72 223.006 142.72 223.006"
       stroke="#A55F2B"
       stroke-width="4"
       stroke-miterlimit="10"
       stroke-linecap="round"
       id="path48" />
    <path
       d="M251.906 172.071C246.067 175.499 235.507 180.055 218.973 178.701L217.663 174.47C217.663 174.47 236.54 172.633 249.8 160.616C249.8 160.604 250.798 165.457 251.906 172.071Z"
       fill="#B65A18"
       id="path50" />
    <path
       d="m 222.234,42.0448 c 0,0 -3.055,42.5675 -92.525,54.1416 0,0 -11.673,-9.4801 -4.75,-19.0473 6.923,-9.5672 14.587,-13.0861 8.048,-19.5698 -6.539,-6.4837 -15.675,-19.9221 -2.478,-32.3076 13.197,-12.3855 43.363,-28.80058 65.276,-16.81091 21.913,11.98971 -4.96,33.97401 26.429,33.59401 z"
       fill="#3f4d79"
       id="path52"
       style="display:inline;fill:#1a1a1a" />
    <path
       d="M125.371 96.2102C125.371 96.2102 113.698 86.7301 120.621 77.1668C127.544 67.6036 134.444 64.0807 127.901 57.597C121.358 51.1133 114.605 35.5374 129.508 25.2696C146.813 13.3472 165.002 7.92831 186.384 16.1655"
       stroke="#3F4D79"
       stroke-width="4"
       stroke-miterlimit="10"
       id="path54"
       style="stroke:#1a1a1a" />
    <path
       d="M182.477 45.0098C182.477 45.0098 186.115 70.62 205.467 82.1386C205.467 82.1386 192.801 107.523 160.493 111.628C160.493 111.628 169.716 94.8408 169.692 89.4932C169.668 84.1455 165.457 68.6765 165.457 68.6765L182.477 45.0098Z"
       fill="#C36F0B"
       id="path56" />
    <path
       d="M183.475 54.5572C183.8 66.5073 175.432 75.8529 168.37 80.7809C167.135 74.8752 165.457 68.6765 165.457 68.6765L182.478 45.0098C182.744 46.6646 183.097 48.3043 183.535 49.9221C183.451 51.3312 183.428 52.8829 183.475 54.5572Z"
       fill="#B65A18"
       id="path58" />
    <path
       d="M180.499 34.4569C173.912 26.9361 163.973 21.6162 154.924 24.5216C141.01 28.9944 139.162 52.0357 157.026 72.9513C159.143 75.4292 179.703 67.6709 181.785 51.2044C182.873 42.603 180.499 34.4569 180.499 34.4569Z"
       fill="#C36F0B"
       id="path60" />
    <path
       d="M181.29 36.0957L174.395 8.03532C173.156 3.2537 168.624 0.26123 163.921 1.14393L150.325 4.04536C145.97 4.86869 143.493 9.76905 143.512 14.3844"
       stroke="#FFB000"
       stroke-width="5"
       stroke-miterlimit="10"
       stroke-linecap="round"
       id="path62" />
    <path
       d="M181.786 33.9604L180.589 34.2484C175.8 35.4007 172.853 40.2167 174.005 45.0053L174.293 46.2022C175.445 50.9908 180.261 53.9386 185.05 52.7863L186.247 52.4983C191.035 51.346 193.983 46.53 192.831 41.7414L192.543 40.5445C191.391 35.7559 186.575 32.8081 181.786 33.9604Z"
       fill="white"
       id="path64" />
    <path
       d="M187.37 51.4022C190.537 60.9021 201.79 82.3719 187.37 107.004C172.95 131.637 154.588 150.055 168.651 176.1C180.859 198.71 180.051 233.448 147.277 233.448"
       stroke="white"
       stroke-width="5"
       stroke-miterlimit="10"
       stroke-linecap="round"
       id="path66" />
    <path
       d="M53.6112 230.998H47.5233C46.1636 230.999 44.8331 230.604 43.6948 229.86C42.5566 229.116 41.66 228.056 41.1148 226.811L1.77733 136.415C1.314 135.352 1.12274 134.189 1.22082 133.034C1.3189 131.878 1.70323 130.765 2.33913 129.794C2.97503 128.824 3.84249 128.028 4.86322 127.477C5.88395 126.926 7.02583 126.637 8.18581 126.638L53.6112 230.998Z"
       fill="white"
       stroke="#6562CF"
       stroke-width="2.5"
       stroke-miterlimit="10"
       id="path68" />
    <path
       d="M178.994 241.005H58.6264C57.3125 241.005 56.0115 240.746 54.7976 240.243C53.5838 239.74 52.481 239.003 51.5521 238.074C50.6232 237.145 49.8865 236.041 49.384 234.827C48.8816 233.613 48.6233 232.312 48.6238 230.998H168.987C171.641 230.998 174.187 232.053 176.063 233.929C177.94 235.806 178.994 238.351 178.994 241.005Z"
       fill="white"
       stroke="#6562CF"
       stroke-width="2.5"
       stroke-miterlimit="10"
       id="path70" />
  </g>
  <defs
     id="defs77">
    <clipPath
       id="clip0_33_58">
      <rect
         width="287.847"
         height="500"
         fill="white"
         id="rect74" />
    </clipPath>
  </defs>
</svg>
